<svg xmlns="http://www.w3.org/2000/svg" xmlns:xlink="http://www.w3.org/1999/xlink" version="1.1" x="0px" y="0px" viewBox="0 0 512 640" enable-background="new 0 0 512 512" xml:space="preserve"><g><path d="M421.1,78.2c0-14-11.4-25.4-25.4-25.4h-85.9c-9.6,0-18.4-5.4-22.7-14L275.7,16C271.4,7.4,262.6,2,253,2h-70.2   c-9.6,0-18.4,5.4-22.7,14l-11.4,22.7c-4.3,8.6-13.1,14-22.7,14H40.1c-14,0-25.4,11.4-25.4,25.4c0,14,11.4,25.4,25.4,25.4h355.6   C409.7,103.6,421.1,92.2,421.1,78.2z"/><path d="M358.3,205.7c5.1-0.3,9.2-4.1,9.6-9.2l2.4-32c0-5.6-4.5-10.2-10.2-10.2H75.7c-5.6,0-10.2,4.5-10.2,10.2l25.4,335.3   c0,5.6,4.5,10.2,10.2,10.2h122.4c8.5,0,13.1-9.7,7.9-16.3c-24.3-30.4-38.8-68.8-38.8-110.7C192.5,289,265.9,211.9,358.3,205.7z"/><path d="M370.3,256c-70.1,0-127,56.9-127,127s56.9,127,127,127s127-56.9,127-127S440.4,256,370.3,256z M439.1,415.8   c9.9,9.9,9.9,26,0,35.9c-10.4,10.4-26.7,9.2-35.9,0l-32.8-32.8l-32.8,32.8c-9.2,9.2-26.9,9.1-35.9,0c-9.9-9.9-9.9-26,0-35.9   l32.8-32.8l-32.8-32.8c-9.9-9.9-9.9-26,0-35.9c9.9-9.9,26-9.9,35.9,0l32.8,32.8l32.8-32.8c9.9-9.9,26-9.9,35.9,0   c9.9,9.9,9.9,26,0,35.9L406.2,383L439.1,415.8z"/></g><text x="0" y="527" fill="#000000" font-size="5px" font-weight="bold" font-family="'Helvetica Neue', Helvetica, Arial-Unicode, Arial, Sans-serif">Created by Icon Fair</text><text x="0" y="532" fill="#000000" font-size="5px" font-weight="bold" font-family="'Helvetica Neue', Helvetica, Arial-Unicode, Arial, Sans-serif">from the Noun Project</text></svg>