<svg xmlns="http://www.w3.org/2000/svg" xmlns:xlink="http://www.w3.org/1999/xlink" version="1.1" x="0px" y="0px" viewBox="0 0 512 640" enable-background="new 0 0 512 512" xml:space="preserve"><g><path d="M354.2,100.3c-4-4-10.4-4-14.4,0L85.5,354.7c-4,4-4,10.4,0,14.4l57.5,57.5c4,4,10.4,4,14.4,0l254.3-254.3   c4-4,4-10.4,0-14.4L354.2,100.3z"/><path d="M49.6,405c-4-4-10.4-4-14.4,0l-15.9,15.8c-0.9,1.8-1.8,3.4-2.8,5.2L2.2,497.8c-1.4,7.1,4.8,13.4,12,12L86,495.4   c1.8-0.9,3.4-1.8,5.2-2.8l15.9-15.9c4-4,4-10.4,0-14.4L49.6,405z"/><path d="M502.6,45.4L466.6,9.4c-9.9-9.9-26-9.9-35.9,0L390.1,50c-4,4-4,10.4,0,14.4l57.5,57.5c4,4,10.4,4,14.4,0l40.6-40.6   C512.5,71.4,512.5,55.3,502.6,45.4z"/></g><text x="0" y="527" fill="#000000" font-size="5px" font-weight="bold" font-family="'Helvetica Neue', Helvetica, Arial-Unicode, Arial, Sans-serif">Created by Icon Fair</text><text x="0" y="532" fill="#000000" font-size="5px" font-weight="bold" font-family="'Helvetica Neue', Helvetica, Arial-Unicode, Arial, Sans-serif">from the Noun Project</text></svg>